Best Laid Plans 2012 DVDRip XViD-DTRG

Format : AVI
Format/Info : Audio Video Interleave
File size : 1.37 GiB
Duration : 1h 43mn
Overall bit rate : 1 893 Kbps
Writing application : VirtualDubMod 1.5.10.2 (build 2540/release)
Writing library : VirtualDubMod build 2540/release

Video
ID : 0
Format : MPEG-4 Visual
Format profile : Advanced Simple@L5
Format settings, BVOP : 2
Format settings, QPel : No
Format settings, GMC : No warppoints
Format settings, Matrix : Default (H.263)
Muxing mode : Packed bitstream
Codec ID : XVID
Codec ID/Hint : XviD
Duration : 1h 43mn
Bit rate : 1 436 Kbps
Width : 720 pixels
Height : 304 pixels
Display aspect ratio : 2.35:1
Frame rate : 25.000 fps
Color space : YUV
Chroma subsampling : 4:2:0
Bit depth : 8 bits
Scan type : Progressive
Compression mode : Lossy
Bits/(Pixel*Frame) : 0.262
Stream size : 1.04 GiB (76%)
Writing library : XviD 64

Audio
ID : 1
Format : AC-3
Format/Info : Audio Coding 3
Mode extension : CM (complete main)
Codec ID : 2000
Duration : 1h 43mn
Bit rate mode : Constant
Bit rate : 448 Kbps
Channel(s) : 6 channels
Channel positions : Front: L C R, Side: L R, LFE
Sampling rate : 48.0 KHz
Bit depth : 16 bits
Compression mode : Lossy
Stream size : 332 MiB (24%)
Alignment : Aligned on interleaves
Interleave, duration : 40 ms (1.00 video frame)
Interleave, preload duration : 512 ms
 
http://www.imdb.com/title/tt1764198/

Storyline

David Blair directs this powerful British Drama, loosely inspired by John Steinbeck's novel 'Of Mice and Men'. Set in Nottingham, the film revolves around the relationship between the thuggish Danny (Stephen Graham) and Joseph (Adewale Akinnuoye-Agbaje), a giant of a man with a mental age of seven. When Danny finds himself in debt to a local crime boss, he feels he is left with no choice but to manipulate Joseph into participating in a series of underground cage fights from which Danny can pay his debts.

Source Used

Legend PAL DVDR ........Thanks guys

Enjoy

Greetz to EMBER,ETRG,BHRG,CreWSaDe,RemixHD,LEGiTiMATE,INSPiRAL,EXQUiSiTE,LEGiON,Xtreme Encode .......and maybe many more
 
http://img29.imageshack.us/img29/1636/18259073.jpg
 
http://img812.imageshack.us/img812/5822/31801346.jpg
 
http://img641.imageshack.us/img641/263/81417630.jpg